<svg width="15" height="27" viewBox="0 0 15 27" fill="none" xmlns="http://www.w3.org/2000/svg">
<path fill-rule="evenodd" clip-rule="evenodd" d="M4.24302 1.15529C4.10027 1.79081 3.90742 2.55671 3.8143 2.85781C3.65714 3.36565 3.71599 3.40505 4.62872 3.40505C5.58469 3.40505 5.62889 3.36881 6.19019 2.12816C7.05234 0.222788 6.99443 0 5.6374 0H4.50251L4.24302 1.15529ZM9.51519 0.304022C9.47194 0.471356 9.33038 1.04584 9.20063 1.58092C9.07064 2.116 8.88536 2.74544 8.7887 2.97942C8.63602 3.34838 8.75372 3.40505 9.67235 3.40505C10.7167 3.40505 10.7392 3.38778 11.2338 2.20477C12.0234 0.315454 11.9421 0 10.6647 0C10.0075 0 9.5634 0.117474 9.51519 0.304022ZM1.01798 7.34713C1.06052 8.72398 1.13402 11.5468 1.18153 13.6202C1.24604 16.4415 1.36705 17.6306 1.66247 18.3462L2.05738 19.3023L1.33207 19.984C-0.162042 21.3886 -0.458643 23.6537 0.745487 24.4653C1.51665 24.9855 2.11009 24.735 2.85596 23.5749C3.75593 22.1754 4.63486 21.6933 6.03397 21.8317C7.30522 21.9575 9.41948 21.4197 10.6229 20.6648C11.6495 20.0205 11.819 20.0618 11.6528 20.9167L11.511 21.6464H12.8641H14.2171V13.2554V4.86436H12.5965C11.1376 4.86436 10.9951 4.90692 11.1679 5.28999C11.2735 5.52397 11.399 8.28765 11.447 11.4312C11.5333 17.0972 11.5292 17.1542 10.9793 17.9923C9.20347 20.6988 5.68703 20.575 4.23593 17.7549C3.6829 16.6801 3.67416 16.5614 3.75097 11.188C3.79422 8.1782 3.88 5.55145 3.94216 5.35079C4.03291 5.05626 3.75498 4.97235 2.49768 4.91495L0.9407 4.84393L1.01798 7.34713ZM1.24605 20.6743C0.601086 21.409 0.391456 21.8604 0.391456 22.5144C0.391456 24.4458 1.51145 24.9476 2.49744 23.4576C2.81059 22.9841 3.3577 22.3449 3.71315 22.0372L4.35929 21.4778L3.69685 21.0751C3.04574 20.6794 3.02329 20.6854 2.41212 21.4331C2.06991 21.8514 1.7225 22.1243 1.63978 22.0392C1.55706 21.9541 1.77733 21.5751 2.12947 21.1969C2.53904 20.7569 2.71511 20.3639 2.61868 20.1051C2.39724 19.5109 2.19304 19.5956 1.24605 20.6743ZM12.3264 23.3866C11.131 24.0594 10.8784 25.5678 11.8098 26.4684C12.9094 27.5315 14.6619 26.9164 14.953 25.3652C15.0757 24.7119 14.9823 24.4638 14.3811 23.8451C13.6232 23.0651 13.1035 22.9491 12.3264 23.3866Z" fill="black"/>
</svg>
